<?xml version="1.0" encoding="UTF-8" standalone="no"?>
<!-- Created with Inkscape (http://www.inkscape.org/) -->

<svg
   width="210mm"
   height="297mm"
   viewBox="0 0 210 297"
   version="1.1"
   id="svg1"
   xml:space="preserve"
   inkscape:version="1.3.2 (091e20e, 2023-11-25)"
   sodipodi:docname="logo.svg"
   inkscape:export-filename="the-golden-ogo.svg"
   inkscape:export-xdpi="96"
   inkscape:export-ydpi="96"
   xmlns:inkscape="http://www.inkscape.org/namespaces/inkscape"
   xmlns:sodipodi="http://sodipodi.sourceforge.net/DTD/sodipodi-0.dtd"
   xmlns="http://www.w3.org/2000/svg"
   xmlns:svg="http://www.w3.org/2000/svg"><sodipodi:namedview
     id="namedview1"
     pagecolor="#ffffff"
     bordercolor="currentColor"
     borderopacity="0.25"
     inkscape:showpageshadow="2"
     inkscape:pageopacity="0.0"
     inkscape:pagecheckerboard="0"
     inkscape:deskcolor="#d1d1d1"
     inkscape:document-units="mm"
     inkscape:zoom="0.67998573"
     inkscape:cx="448.53882"
     inkscape:cy="393.39061"
     inkscape:window-maximized="1"
     inkscape:current-layer="layer2"
     inkscape:window-width="1512"
     inkscape:window-height="916"
     inkscape:window-x="0"
     inkscape:window-y="38" /><defs
     id="defs1" /><g
     inkscape:groupmode="layer"
     id="layer2"
     inkscape:label="Ebene 2"><path
       style="display:inline;fill:currentColor"
       d="m 53.559135,87.912537 c 0.0283,-26.89808 -0.0266,-23.13251 0.19355,-52.644306 1.07332,0.56403 9.27742,5.483066 10.4572,6.138066 l 0.11924,40.82093 z"
       id="path48"
       inkscape:label="Außenelement 5"
       sodipodi:nodetypes="ccccc" /><path
       style="display:inline;fill:currentColor;stroke-width:0.979374"
       d="m 157.12913,87.686117 c -0.0271,-26.89808 0.2647,-22.97169 0.0536,-52.483489 -1.0295,0.56403 -9.00976,5.671669 -10.14137,6.326669 l 0.0345,40.02763 z"
       id="path48-0"
       inkscape:label="Außenelement 5"
       sodipodi:nodetypes="ccccc" /><path
       style="display:inline;fill:currentColor"
       d="M 103.5895,120.5735 C 80.394285,106.95405 80.162705,107.60607 54.809175,92.500004 c 1.02918,-0.641047 9.65352,-6.426007 10.81499,-7.112937 l 37.739655,23.242473 c 0.29947,5.88533 -0.0702,4.81814 0.22568,11.94396 z"
       id="path48-4"
       inkscape:label="Außenelement 5"
       sodipodi:nodetypes="ccccc" /><path
       style="display:inline;fill:currentColor;stroke-width:0.995788"
       d="m 106.81477,120.08784 c 23.00024,-13.61945 48.76615,-28.239253 48.76615,-28.239253 0,0 -9.12059,-5.75341 -10.2723,-6.44034 l -38.14767,22.846143 c -0.19865,5.67323 -0.31818,5.75392 -0.34618,11.83345 z"
       id="path48-4-5"
       inkscape:label="Außenelement 5"
       sodipodi:nodetypes="ccccc" /><path
       style="display:inline;fill:currentColor"
       d="m 55.222735,31.138256 c 22.0792,-14.070053 22.73275,-13.567176 47.984145,-28.843344 0.082,1.209725 0.41512,5.366577 0.39088,12.294848 L 65.489735,37.367014 c -5.27056,-3.335622 -4.31796,-2.900552 -10.267,-6.228758 z"
       id="path47"
       inkscape:label="Außenelement 6"
       sodipodi:nodetypes="ccccc" /><path
       style="display:inline;fill:currentColor;stroke-width:1.01701"
       d="M 156.19301,31.430524 C 133.35634,17.360471 133.52813,17.200311 107.41044,1.9241432 c -0.0848,1.2097248 -0.0846,5.6980948 -0.0596,12.6263658 l 38.41352,23.329785 z"
       id="path47-3"
       inkscape:label="Außenelement 6"
       sodipodi:nodetypes="ccccc" /><path
       id="path46"
       style="display:inline;fill:currentColor"
       inkscape:label="Schloss"
       d="m 106.11167,24.84898 c -6.02218,-0.630913 -24.308515,4.574405 -24.342855,21.619947 1.18167,16.09516 8.27345,23.51861 21.923895,26.05157 0.38775,-5.32388 0.16565,-14.92548 0.51011,-20.13452 -4.12826,-1.63081 -4.222525,-8.17656 1.73176,-8.59384 6.05292,0.60439 5.11583,6.86086 1.14119,8.82165 0.22658,6.50401 0.0561,13.55765 -0.192,20.06225 2.16717,0.64674 21.13125,-3.27358 21.9792,-22.81092 1.28123,-13.734906 -9.57559,-24.946469 -22.7513,-25.016137 z m -0.19739,8.323805 c 6.6459,0.108216 14.60251,6.464562 14.85594,14.094712 0.32312,9.72805 -7.0874,14.34528 -8.87129,14.49027 -0.23296,0.0189 -0.0435,-5.58474 -0.0435,-5.58474 4.1138,-3.97855 3.32984,-9.35735 3.32984,-9.35735 0,0 -0.91687,-8.853039 -9.29502,-8.906883 -8.891545,-0.05714 -10.111845,8.064533 -10.111845,8.064533 0,0 -1.359,6.90932 3.64275,10.20712 l -0.12634,5.939 c 0,0 -8.38771,-1.02883 -8.47925,-15.11635 -0.0657,-10.111581 10.176715,-13.910458 15.098685,-13.830312 z"
       sodipodi:nodetypes="cccccccccsssscscccss" /><path
       style="fill:currentColor;stroke-width:0.264583"
       d="m 103.49208,105.70995 c 0,0 -6.461035,-10.283446 -10.372285,-13.405576 -8.46468,-6.756847 -16.99788,-10.519007 -20.79177,-23.513137 -5.46192,-18.70719 4.36248,-29.28516 4.36248,-29.28516 0,0 -4.12234,19.39826 10.00058,29.0017 21.986065,14.95028 16.800995,37.202173 16.800995,37.202173 z"
       id="path49"
       sodipodi:nodetypes="csscsc"
       inkscape:label="Blatt links" /><path
       style="fill:currentColor;stroke-width:0.26341"
       d="m 107.55526,105.20951 c 0,0 6.40385,-10.283446 10.28049,-13.405573 8.38976,-6.75685 16.84746,-10.51901 20.60777,-23.51314 5.41359,-18.70719 -4.32388,-29.285157 -4.32388,-29.285157 0,0 4.08586,19.398257 -9.91208,29.001697 -21.79149,14.95028 -16.6523,37.202173 -16.6523,37.202173 z"
       id="path49-5"
       sodipodi:nodetypes="csscsc"
       inkscape:label="Blatt rechts" /></g></svg>
